<?xml version="1.0" encoding="utf-8"?>
<!-- Generator: Adobe Illustrator 13.0.0, SVG Export Plug-In . SVG Version: 6.00 Build 14948)  -->
<!DOCTYPE svg PUBLIC "-//W3C//DTD SVG 1.1//EN" "http://www.w3.org/Graphics/SVG/1.1/DTD/svg11.dtd">
<svg version="1.1"
	 id="Layer_1" inkscape:version="0.48.4 r9939" sodipodi:docname="aspexi-small-org.svg" xmlns:cc="http://creativecommons.org/ns#" xmlns:svg="http://www.w3.org/2000/svg" xmlns:inkscape="http://www.inkscape.org/namespaces/inkscape" xmlns:dc="http://purl.org/dc/elements/1.1/" xmlns:sodipodi="http://sodipodi.sourceforge.net/DTD/sodipodi-0.dtd" xmlns:rdf="http://www.w3.org/1999/02/22-rdf-syntax-ns#"
	 xmlns="http://www.w3.org/2000/svg" xmlns:xlink="http://www.w3.org/1999/xlink" x="0px" y="0px" width="35px" height="35px"
	 viewBox="0 0 35 35" enable-background="new 0 0 35 35" xml:space="preserve">
<sodipodi:namedview  id="namedview3080" inkscape:window-maximized="1" fit-margin-top="0" objecttolerance="10" showgrid="false" inkscape:cx="-31.345431" guidetolerance="10" bordercolor="#666666" pagecolor="#ffffff" fit-margin-left="0" inkscape:zoom="1.6823576" inkscape:cy="125.4416" gridtolerance="10" borderopacity="1" fit-margin-right="0" inkscape:snap-global="true" inkscape:current-layer="Layer_1" inkscape:window-x="0" inkscape:window-y="27" fit-margin-bottom="0" inkscape:pageopacity="0" inkscape:window-height="834" inkscape:window-width="1600" inkscape:pageshadow="2">
	</sodipodi:namedview>
<path id="Blue_1_" inkscape:connector-curvature="0" fill="#3B5998" d="M1.991,0C0.892,0,0,0.892,0,1.991v31.018
	C0,34.107,0.892,35,1.991,35h31.018C34.107,35,35,34.108,35,33.009V1.991C35,0.892,34.107,0,33.009,0H1.991z M1.991,0.135h31.018
	c1.026,0,1.856,0.83,1.856,1.856v31.018c0,1.026-0.83,1.856-1.856,1.856H1.991c-1.026,0-1.856-0.83-1.856-1.856V1.991
	C0.135,0.965,0.965,0.135,1.991,0.135z"/>
</svg>
