<?xml version="1.0" encoding="utf-8"?>
<!-- Generator: Adobe Illustrator 13.0.0, SVG Export Plug-In . SVG Version: 6.00 Build 14948)  -->
<!DOCTYPE svg PUBLIC "-//W3C//DTD SVG 1.1//EN" "http://www.w3.org/Graphics/SVG/1.1/DTD/svg11.dtd">
<svg version="1.1" id="Layer_1" xmlns="http://www.w3.org/2000/svg" xmlns:xlink="http://www.w3.org/1999/xlink" x="0px" y="0px"
	 width="35px" height="92px" viewBox="0 0 35 92" enable-background="new 0 0 35 92" xml:space="preserve">
<rect y="-0.5" fill="#1DA1F2" width="35" height="92"/>
<g>
	<path fill="#FFFFFF" d="M23.222,61.425c0.447,0.516,0.785,1.079,0.982,1.719c0.902,2.938-1.283,5.966-4.357,6.017
		c-1.146,0.018-2.293,0.011-3.439,0c-1.095-0.013-1.8-0.907-1.556-1.957c0.154-0.66,0.77-1.149,1.465-1.158
		c1.137-0.012,2.274-0.017,3.411-0.029c0.887-0.009,1.563-0.751,1.496-1.638c-0.056-0.744-0.727-1.373-1.509-1.383
		c-1.095-0.014-2.191-0.002-3.285-0.012c-1.216-0.012-1.988-1.191-1.475-2.26c0.291-0.604,0.813-0.876,1.462-0.885
		c1.07-0.014,2.141,0.002,3.211-0.007c0.98-0.007,1.678-0.749,1.594-1.682c-0.07-0.792-0.755-1.356-1.66-1.363
		c-1.026-0.005-2.056,0.002-3.083-0.002c-0.682-0.003-1.229-0.266-1.529-0.9c-0.473-1,0.193-2.16,1.304-2.206
		c1.213-0.052,2.43-0.021,3.643-0.011c0.271,0.002,0.543,0.038,0.808,0.093c1.937,0.396,3.401,1.975,3.683,3.94
		c0.188,1.315-0.201,2.459-0.99,3.492C23.339,61.267,23.284,61.341,23.222,61.425z"/>
	<path fill="#FFFFFF" d="M15.049,76.324c0-0.139,0-0.239,0-0.34c0-1.435-0.001-2.871,0-4.306c0-0.877,0.624-1.554,1.477-1.602
		c0.864-0.051,1.565,0.567,1.647,1.455c0.021,0.234,0.018,0.473,0.018,0.712c0.002,1.256,0,2.512,0,3.767c0,0.1,0,0.199,0,0.371
		c0.621-0.065,1.219-0.074,1.789-0.201c0.604-0.131,1.013-0.746,1.025-1.454c0.021-1.11,0.01-2.224,0.014-3.337
		c0.002-0.873,0.602-1.545,1.478-1.663c0.848-0.115,1.639,0.416,1.851,1.247c0.032,0.129,0.055,0.268,0.053,0.402
		c-0.01,1.263,0.013,2.528-0.049,3.791c-0.084,1.696-0.988,2.921-2.388,3.803c-0.745,0.469-1.569,0.695-2.462,0.69
		c-2.335-0.013-4.67-0.002-7.004-0.002c-0.784,0-1.499-0.663-1.565-1.453c-0.096-1.076,0.635-1.877,1.717-1.88
		c0.694-0.002,1.391-0.002,2.086-0.002C14.825,76.324,14.916,76.324,15.049,76.324z"/>
	<path fill="#FFFFFF" d="M20.517,27.354c0.403,0.021,0.633-0.166,0.801-0.476c0.301-0.56,0.332-1.167,0.338-1.778
		c0.007-0.898,0.007-1.799,0.02-2.697c0.008-0.58,0.368-1.09,0.889-1.275c0.522-0.188,1.136-0.041,1.494,0.363
		c0.242,0.271,0.348,0.603,0.348,0.959c0,1.271,0.029,2.546-0.023,3.816c-0.104,2.469-2.186,4.478-4.654,4.547
		c-0.901,0.025-1.78-0.092-2.584-0.527c-1.101-0.596-1.836-1.495-2.134-2.717c-0.321-1.318-0.327-2.647,0.158-3.928
		c0.608-1.609,1.737-2.649,3.484-2.904c0.336-0.049,0.697-0.016,1.033,0.053c0.486,0.095,0.784,0.525,0.823,1.096
		c0.011,0.151,0.011,0.307,0.011,0.458c0.002,1.578,0,3.154,0,4.732C20.517,27.166,20.517,27.255,20.517,27.354z M18.313,24.074
		c-0.325-0.019-0.556,0.129-0.702,0.383c-0.467,0.813-0.471,1.64-0.004,2.458c0.149,0.266,0.388,0.4,0.706,0.402
		C18.313,26.229,18.313,25.153,18.313,24.074z"/>
	<path fill="#FFFFFF" d="M15.049,44.654c0-0.352,0-0.673,0-0.994c0-0.61-0.002-1.221,0-1.832c0.002-0.924,0.653-1.6,1.544-1.607
		c0.908-0.007,1.588,0.663,1.596,1.592c0.01,0.881,0.002,1.766,0.004,2.646c0,0.042,0.004,0.083,0.009,0.154
		c0.571,0.02,1.138,0.103,1.694-0.047c0.631-0.169,1.08-0.764,1.11-1.486c0.022-0.541,0.004-1.086,0.013-1.629
		c0.016-0.776,0.637-1.477,1.398-1.583c0.859-0.119,1.657,0.323,1.876,1.087c0.089,0.305,0.101,0.635,0.118,0.955
		c0.061,1.047,0.04,2.095-0.404,3.072c-0.8,1.752-2.172,2.746-4.085,2.982c-0.253,0.031-0.507,0.039-0.762,0.039
		c-2.182,0.004-4.362,0.007-6.543-0.001c-0.657-0.002-1.193-0.271-1.504-0.87c-0.303-0.585-0.28-1.18,0.09-1.736
		c0.314-0.472,0.773-0.707,1.333-0.723c0.721-0.021,1.442-0.014,2.164-0.02C14.801,44.654,14.9,44.654,15.049,44.654z"/>
	<path fill="#FFFFFF" d="M18.19,35.936c0.49,0,0.939,0.03,1.386-0.01c0.807-0.068,1.392-0.713,1.429-1.555
		c0.025-0.534,0.005-1.07,0.014-1.604c0.015-0.838,0.705-1.574,1.504-1.613c0.992-0.049,1.746,0.492,1.84,1.365
		c0.058,0.514,0.066,1.031,0.064,1.549c-0.004,1.293-0.328,2.484-1.207,3.474c-1.031,1.16-2.32,1.759-3.882,1.757
		c-2.24-0.002-4.48,0.004-6.721-0.003c-0.661,0-1.193-0.269-1.504-0.868c-0.297-0.576-0.273-1.166,0.078-1.718
		c0.346-0.541,0.871-0.757,1.494-0.762c0.695-0.005,1.393-0.011,2.088,0.005c0.23,0.005,0.283-0.07,0.278-0.289
		c-0.012-0.857-0.006-1.714-0.004-2.571c0.001-0.876,0.642-1.55,1.495-1.579c0.875-0.031,1.578,0.566,1.619,1.443
		c0.042,0.879,0.021,1.762,0.026,2.645C18.19,35.701,18.19,35.8,18.19,35.936z"/>
	<path fill="#FFFFFF" d="M21.263,16.688c0.52,0,1.036-0.014,1.555,0.002c1.26,0.039,1.996,1.304,1.365,2.351
		c-0.291,0.483-0.732,0.745-1.306,0.753c-0.5,0.007-1,0.014-1.501-0.001c-0.843-0.021-1.693,0.005-2.527-0.103
		c-1.87-0.236-3.479-1.825-3.729-3.692c-0.109-0.81-0.063-1.642-0.082-2.462c-0.006-0.202,0.01-0.406,0.011-0.609
		c0.005-0.891,0.677-1.58,1.544-1.586c0.893-0.007,1.582,0.659,1.597,1.563c0.013,0.712-0.002,1.425,0.004,2.137
		c0.007,0.843,0.41,1.438,1.119,1.582c0.336,0.068,0.689,0.054,1.035,0.063C20.651,16.694,20.958,16.686,21.263,16.688z"/>
	<path fill="#FFFFFF" d="M19.603,52.499c-1.018,0-2.036,0-3.057,0c-0.952,0-1.721-0.701-1.744-1.593
		c-0.024-0.981,0.677-1.743,1.687-1.752c2.079-0.021,4.159-0.018,6.237-0.002c0.932,0.009,1.604,0.67,1.676,1.584
		c0.064,0.818-0.524,1.596-1.364,1.729c-0.373,0.063-0.761,0.032-1.142,0.032C21.131,52.501,20.366,52.499,19.603,52.499z"/>
	<path fill="#FFFFFF" d="M10.564,50.832c0.004-0.941,0.744-1.686,1.678-1.684c0.959,0,1.697,0.75,1.693,1.722
		c-0.004,0.919-0.748,1.631-1.697,1.627C11.27,52.494,10.563,51.791,10.564,50.832z"/>
</g>
</svg>
