<?xml version="1.0" encoding="utf-8"?>
<!-- Generator: Adobe Illustrator 13.0.0, SVG Export Plug-In . SVG Version: 6.00 Build 14948)  -->
<!DOCTYPE svg PUBLIC "-//W3C//DTD SVG 1.1//EN" "http://www.w3.org/Graphics/SVG/1.1/DTD/svg11.dtd">
<svg version="1.1" id="Layer_1" xmlns="http://www.w3.org/2000/svg" xmlns:xlink="http://www.w3.org/1999/xlink" x="0px" y="0px"
	 width="35px" height="92px" viewBox="0 0 35 92" enable-background="new 0 0 35 92" xml:space="preserve">
<rect y="-0.5" fill="#1DA1F2" width="35" height="92"/>
<g>
	<path fill="#FFFFFF" d="M11.78,29.577c-0.447-0.516-0.785-1.079-0.982-1.719c-0.902-2.938,1.283-5.966,4.357-6.017
		c1.146-0.018,2.293-0.011,3.439,0c1.095,0.013,1.8,0.907,1.556,1.957c-0.154,0.66-0.77,1.149-1.465,1.158
		c-1.137,0.012-2.274,0.017-3.411,0.029c-0.887,0.009-1.563,0.751-1.496,1.638c0.056,0.744,0.727,1.373,1.509,1.383
		c1.095,0.014,2.191,0.002,3.285,0.012c1.216,0.012,1.988,1.191,1.475,2.26c-0.291,0.604-0.813,0.876-1.462,0.885
		c-1.069,0.014-2.14-0.002-3.21,0.007c-0.98,0.007-1.678,0.749-1.594,1.682c0.07,0.792,0.755,1.356,1.66,1.363
		c1.026,0.005,2.056-0.002,3.083,0.002c0.682,0.003,1.229,0.266,1.529,0.9c0.473,1-0.193,2.16-1.304,2.206
		c-1.213,0.052-2.429,0.021-3.642,0.011c-0.271-0.002-0.543-0.038-0.808-0.093c-1.937-0.396-3.401-1.975-3.683-3.94
		c-0.188-1.315,0.201-2.459,0.99-3.492C11.663,29.735,11.717,29.661,11.78,29.577z"/>
	<path fill="#FFFFFF" d="M19.952,14.678c0,0.139,0,0.239,0,0.34c0,1.435,0.001,2.871,0,4.306c0,0.877-0.624,1.554-1.477,1.602
		c-0.863,0.051-1.565-0.567-1.647-1.455c-0.021-0.234-0.018-0.473-0.018-0.712c-0.002-1.256,0-2.512,0-3.767c0-0.1,0-0.199,0-0.371
		c-0.621,0.065-1.219,0.074-1.789,0.201c-0.604,0.131-1.013,0.746-1.025,1.454c-0.021,1.11-0.01,2.224-0.014,3.337
		c-0.002,0.873-0.602,1.545-1.478,1.663c-0.848,0.115-1.639-0.416-1.851-1.247c-0.032-0.129-0.055-0.268-0.053-0.402
		c0.01-1.263-0.013-2.528,0.049-3.791c0.084-1.696,0.988-2.921,2.388-3.803c0.745-0.469,1.569-0.695,2.462-0.69
		c2.335,0.013,4.669,0.002,7.003,0.002c0.784,0,1.499,0.663,1.565,1.453c0.096,1.076-0.635,1.877-1.717,1.88
		c-0.694,0.002-1.391,0.002-2.086,0.002C20.176,14.678,20.085,14.678,19.952,14.678z"/>
	<path fill="#FFFFFF" d="M14.485,63.647c-0.403-0.021-0.633,0.166-0.801,0.476c-0.301,0.56-0.332,1.167-0.338,1.778
		c-0.007,0.898-0.007,1.799-0.02,2.697c-0.008,0.58-0.368,1.09-0.889,1.275c-0.522,0.188-1.136,0.041-1.494-0.363
		c-0.242-0.271-0.348-0.603-0.348-0.959c0-1.271-0.029-2.546,0.023-3.816c0.104-2.469,2.186-4.478,4.654-4.547
		c0.901-0.025,1.78,0.092,2.584,0.527c1.101,0.596,1.836,1.495,2.134,2.717c0.321,1.318,0.327,2.647-0.158,3.928
		c-0.608,1.609-1.737,2.649-3.484,2.904c-0.336,0.049-0.697,0.016-1.033-0.053c-0.486-0.095-0.784-0.525-0.823-1.096
		c-0.011-0.151-0.011-0.307-0.011-0.458c-0.002-1.578,0-3.154,0-4.732C14.485,63.836,14.485,63.746,14.485,63.647z M16.688,66.928
		c0.325,0.019,0.556-0.129,0.702-0.383c0.467-0.813,0.471-1.64,0.004-2.458c-0.149-0.266-0.388-0.4-0.706-0.402
		C16.688,64.772,16.688,65.849,16.688,66.928z"/>
	<path fill="#FFFFFF" d="M19.952,46.348c0,0.352,0,0.673,0,0.993c0,0.61,0.002,1.221,0,1.832c-0.002,0.924-0.653,1.6-1.544,1.607
		c-0.907,0.007-1.587-0.663-1.595-1.592c-0.01-0.881-0.002-1.766-0.004-2.646c0-0.041-0.004-0.082-0.009-0.153
		c-0.571-0.02-1.138-0.103-1.694,0.047c-0.631,0.169-1.08,0.764-1.11,1.485c-0.022,0.541-0.004,1.086-0.013,1.629
		c-0.016,0.776-0.637,1.477-1.398,1.583c-0.859,0.119-1.657-0.323-1.876-1.087c-0.089-0.305-0.101-0.635-0.118-0.955
		c-0.061-1.047-0.04-2.095,0.404-3.071c0.8-1.752,2.172-2.746,4.085-2.982c0.253-0.031,0.507-0.039,0.762-0.039
		c2.181-0.004,4.362-0.007,6.542,0.001c0.657,0.002,1.193,0.271,1.504,0.87c0.303,0.585,0.28,1.18-0.09,1.736
		c-0.314,0.472-0.773,0.707-1.333,0.723c-0.721,0.021-1.442,0.014-2.164,0.02C20.2,46.348,20.101,46.348,19.952,46.348z"/>
	<path fill="#FFFFFF" d="M16.811,55.065c-0.49,0-0.939-0.03-1.386,0.01c-0.807,0.068-1.392,0.713-1.429,1.555
		c-0.025,0.534-0.005,1.07-0.014,1.604c-0.015,0.838-0.705,1.574-1.504,1.613c-0.992,0.049-1.746-0.492-1.84-1.365
		c-0.058-0.514-0.066-1.031-0.064-1.549c0.004-1.293,0.328-2.484,1.207-3.474c1.031-1.16,2.32-1.759,3.882-1.757
		c2.24,0.002,4.48-0.004,6.72,0.003c0.661,0,1.193,0.269,1.504,0.868c0.297,0.576,0.273,1.166-0.078,1.718
		c-0.346,0.541-0.871,0.757-1.494,0.762c-0.695,0.005-1.393,0.011-2.088-0.005c-0.23-0.005-0.283,0.07-0.278,0.289
		c0.012,0.857,0.006,1.714,0.004,2.571c-0.001,0.876-0.642,1.55-1.495,1.579c-0.874,0.031-1.578-0.566-1.619-1.443
		c-0.042-0.879-0.021-1.762-0.026-2.645C16.811,55.301,16.811,55.201,16.811,55.065z"/>
	<path fill="#FFFFFF" d="M13.739,74.313c-0.52,0-1.036,0.014-1.555-0.002c-1.26-0.039-1.996-1.304-1.365-2.351
		c0.291-0.483,0.732-0.745,1.306-0.753c0.5-0.007,1-0.014,1.501,0.001c0.843,0.021,1.693-0.005,2.527,0.103
		c1.87,0.236,3.478,1.825,3.729,3.692c0.109,0.81,0.063,1.642,0.082,2.462c0.006,0.202-0.01,0.406-0.011,0.609
		c-0.005,0.891-0.677,1.58-1.544,1.586c-0.893,0.007-1.582-0.659-1.596-1.563c-0.013-0.712,0.002-1.425-0.004-2.137
		c-0.007-0.843-0.41-1.438-1.119-1.582c-0.336-0.068-0.689-0.054-1.035-0.063C14.35,74.308,14.043,74.315,13.739,74.313z"/>
	<path fill="#FFFFFF" d="M15.399,38.503c1.018,0,2.036,0,3.056,0c0.952,0,1.721,0.701,1.744,1.593
		c0.024,0.981-0.677,1.743-1.687,1.752c-2.079,0.021-4.159,0.018-6.237,0.002c-0.932-0.009-1.604-0.67-1.676-1.584
		c-0.064-0.818,0.524-1.596,1.364-1.729c0.373-0.063,0.761-0.032,1.142-0.032C13.871,38.501,14.635,38.503,15.399,38.503z"/>
	<path fill="#FFFFFF" d="M24.437,40.17c-0.004,0.941-0.744,1.686-1.678,1.684c-0.959,0-1.697-0.75-1.693-1.722
		c0.004-0.919,0.748-1.631,1.697-1.627C23.731,38.508,24.438,39.211,24.437,40.17z"/>
</g>
</svg>
