<?xml version="1.0" encoding="utf-8"?>
<!-- Generator: Adobe Illustrator 13.0.0, SVG Export Plug-In . SVG Version: 6.00 Build 14948)  -->
<!DOCTYPE svg PUBLIC "-//W3C//DTD SVG 1.1//EN" "http://www.w3.org/Graphics/SVG/1.1/DTD/svg11.dtd">
<svg version="1.1"
	 id="Layer_1" inkscape:version="0.48.4 r9939" sodipodi:docname="aspexi-small-org.svg" xmlns:dc="http://purl.org/dc/elements/1.1/" xmlns:cc="http://creativecommons.org/ns#" xmlns:rdf="http://www.w3.org/1999/02/22-rdf-syntax-ns#" xmlns:svg="http://www.w3.org/2000/svg" xmlns:sodipodi="http://sodipodi.sourceforge.net/DTD/sodipodi-0.dtd" xmlns:inkscape="http://www.inkscape.org/namespaces/inkscape"
	 xmlns="http://www.w3.org/2000/svg" xmlns:xlink="http://www.w3.org/1999/xlink" x="0px" y="0px" width="35px" height="35px"
	 viewBox="0 0 35 35" enable-background="new 0 0 35 35" xml:space="preserve">
<sodipodi:namedview  id="namedview3080" fit-margin-bottom="0" fit-margin-right="0" inkscape:current-layer="Layer_1" inkscape:window-y="27" inkscape:window-x="0" inkscape:window-height="834" inkscape:window-width="1600" inkscape:pageshadow="2" inkscape:pageopacity="0" fit-margin-left="0" fit-margin-top="0" pagecolor="#ffffff" inkscape:cy="125.4416" guidetolerance="10" inkscape:cx="-31.345431" gridtolerance="10" objecttolerance="10" inkscape:zoom="1.6823576" borderopacity="1" showgrid="false" bordercolor="#666666" inkscape:window-maximized="1" inkscape:snap-global="true">
	</sodipodi:namedview>
<path id="Blue_1_" inkscape:connector-curvature="0" fill="#4AA0EC" d="M1.991,0C0.892,0,0,0.892,0,1.991v31.018
	C0,34.107,0.892,35,1.991,35h31.018C34.107,35,35,34.108,35,33.009V1.991C35,0.892,34.107,0,33.009,0H1.991z M1.991,0.135h31.018
	c1.026,0,1.856,0.83,1.856,1.856v31.018c0,1.026-0.83,1.856-1.856,1.856H1.991c-1.026,0-1.856-0.83-1.856-1.856V1.991
	C0.135,0.965,0.965,0.135,1.991,0.135z"/>
<path fill="#4AA0EC" d="M16.863,13.162c-1.612-4.467,5.645-8.713,8.634-4.637c0,0,1.159-0.042,3.274-1.181
	c0,0-0.505,1.61-2.132,2.676c0,0,1.236-0.008,2.733-0.675c0,0-0.943,1.529-2.408,2.555c0,0-0.032,2.294-0.374,3.726
	s-1.48,5.418-4.897,8.216c-3.416,2.799-7.581,3.417-9.94,3.254c-2.359-0.162-5.255-1.057-7.126-2.212c0,0,4.278,0.455,7.436-2.147
	c0,0-3.189,0.146-4.702-3.531c0,0,1.09,0.195,2.262-0.13c0,0-4.019-0.732-4.067-5.06c0,0,1.317,0.65,2.294,0.585
	c0,0-3.84-2.928-1.497-6.719C6.352,7.882,10.194,12.975,16.863,13.162z"/>
</svg>
