<?xml version="1.0" encoding="utf-8"?>
<!-- Generator: Adobe Illustrator 13.0.0, SVG Export Plug-In . SVG Version: 6.00 Build 14948)  -->
<!DOCTYPE svg PUBLIC "-//W3C//DTD SVG 1.1//EN" "http://www.w3.org/Graphics/SVG/1.1/DTD/svg11.dtd">
<svg version="1.1"
	 id="Layer_1" inkscape:version="0.48.4 r9939" sodipodi:docname="aspexi-small-org-fill.svg" xmlns:dc="http://purl.org/dc/elements/1.1/" xmlns:cc="http://creativecommons.org/ns#" xmlns:rdf="http://www.w3.org/1999/02/22-rdf-syntax-ns#" xmlns:svg="http://www.w3.org/2000/svg" xmlns:sodipodi="http://sodipodi.sourceforge.net/DTD/sodipodi-0.dtd" xmlns:inkscape="http://www.inkscape.org/namespaces/inkscape"
	 xmlns="http://www.w3.org/2000/svg" xmlns:xlink="http://www.w3.org/1999/xlink" x="0px" y="0px" width="35px" height="35px"
	 viewBox="0 0 35 35" enable-background="new 0 0 35 35" xml:space="preserve">
<sodipodi:namedview  id="namedview3000" fit-margin-bottom="0" fit-margin-right="0" inkscape:current-layer="Layer_1" inkscape:window-y="27" inkscape:window-x="0" inkscape:window-height="834" inkscape:window-width="1600" inkscape:pageshadow="2" inkscape:pageopacity="0" fit-margin-left="0" fit-margin-top="0" pagecolor="#ffffff" inkscape:cy="130.92561" guidetolerance="10" inkscape:cx="98.459083" gridtolerance="10" objecttolerance="10" inkscape:zoom="1.7684858" borderopacity="1" showgrid="false" bordercolor="#666666" inkscape:window-maximized="1">
	</sodipodi:namedview>
<path id="Blue_1_" inkscape:connector-curvature="0" fill="#FF0000" d="M33.068,35C34.135,35,35,34.135,35,33.068V1.932
	C35,0.865,34.135,0,33.068,0H1.932C0.865,0,0,0.865,0,1.932v31.137C0,34.135,0.865,35,1.932,35H33.068z"/>
<g>
	<path fill="#FFFFFF" d="M29.723,11.368c-0.295-1.092-1.156-1.953-2.248-2.247C25.48,8.574,17.5,8.574,17.5,8.574
		s-7.98,0-9.977,0.525c-1.07,0.294-1.953,1.177-2.246,2.269C4.752,13.363,4.752,17.5,4.752,17.5s0,4.158,0.525,6.133
		c0.293,1.093,1.154,1.953,2.246,2.247c2.018,0.546,9.977,0.546,9.977,0.546s7.98,0,9.974-0.525
		c1.092-0.294,1.953-1.154,2.248-2.246c0.524-1.996,0.524-6.133,0.524-6.133S30.269,13.363,29.723,11.368z"/>
	<polygon fill="#FF0000" points="14.959,21.323 21.594,17.5 14.959,13.678 	"/>
</g>
</svg>
