<?xml version="1.0" encoding="utf-8"?>
<!-- Generator: Adobe Illustrator 13.0.0, SVG Export Plug-In . SVG Version: 6.00 Build 14948)  -->
<!DOCTYPE svg PUBLIC "-//W3C//DTD SVG 1.1//EN" "http://www.w3.org/Graphics/SVG/1.1/DTD/svg11.dtd">
<svg version="1.1"
	 id="svg2" inkscape:version="0.48.4 r9939" sodipodi:docname="aspexi-big-org-fill-left.svg" xmlns:dc="http://purl.org/dc/elements/1.1/" xmlns:cc="http://creativecommons.org/ns#" xmlns:rdf="http://www.w3.org/1999/02/22-rdf-syntax-ns#" xmlns:svg="http://www.w3.org/2000/svg" xmlns:sodipodi="http://sodipodi.sourceforge.net/DTD/sodipodi-0.dtd" xmlns:inkscape="http://www.inkscape.org/namespaces/inkscape"
	 xmlns="http://www.w3.org/2000/svg" xmlns:xlink="http://www.w3.org/1999/xlink" x="0px" y="0px" width="35px" height="92px"
	 viewBox="0 0 35 92" enable-background="new 0 0 35 92" xml:space="preserve">
<sodipodi:namedview  id="namedview14" fit-margin-bottom="0" fit-margin-right="0" inkscape:current-layer="svg2" inkscape:window-y="27" inkscape:window-x="0" inkscape:window-height="834" inkscape:window-width="1600" inkscape:pageshadow="2" inkscape:pageopacity="0" pagecolor="#ffffff" bordercolor="#666666" inkscape:cy="131.24422" guidetolerance="10" inkscape:cx="53.511552" fit-margin-left="0" gridtolerance="10" borderopacity="1" objecttolerance="10" fit-margin-top="0" inkscape:zoom="1.1390977" showgrid="false" inkscape:window-maximized="1">
	</sodipodi:namedview>
<g id="g4" transform="matrix(0,0.34586466,-0.35,0,35,0)">
	
		<rect id="rect6" x="82.402" y="-81.429" transform="matrix(2.578893e-006 1 -1 2.578893e-006 182.9995 -83)" fill="#FF0000" width="101.196" height="262.857"/>
</g>
<sodipodi:namedview  id="namedview14" fit-margin-bottom="0" fit-margin-right="0" inkscape:current-layer="svg2" inkscape:window-y="27" inkscape:window-x="0" inkscape:window-height="834" inkscape:window-width="1600" inkscape:pageshadow="2" inkscape:pageopacity="0" pagecolor="#ffffff" bordercolor="#666666" inkscape:cy="133.5" guidetolerance="10" inkscape:cx="-211.66833" fit-margin-left="0" gridtolerance="10" borderopacity="1" objecttolerance="10" fit-margin-top="0" inkscape:zoom="1.1390977" showgrid="false" inkscape:window-maximized="1">
	</sodipodi:namedview>
<g>
	<path fill="#FFFFFF" d="M23.023,31.958c0.983-0.266,1.76-1.042,2.023-2.023c0.491-1.797,0.491-8.986,0.491-8.986
		s0-7.188-0.472-8.983C24.8,11,24.006,10.206,23.021,9.941C21.227,9.468,17.5,9.468,17.5,9.468s-3.747,0-5.523,0.473
		c-0.984,0.266-1.759,1.039-2.023,2.023c-0.491,1.816-0.491,8.983-0.491,8.983s0,7.189,0.472,8.986
		c0.266,0.981,1.041,1.759,2.023,2.023c1.797,0.472,5.523,0.472,5.523,0.472S21.227,32.45,23.023,31.958z"/>
	<polygon fill="#FF0000" points="14.057,18.661 17.5,24.638 20.943,18.661 	"/>
	<g>
		<g>
			<path fill="#FFFFFF" d="M10.898,42.815c0.303-0.455,0.775-0.776,1.438-0.965c0.643-0.188,1.514-0.283,2.573-0.283h1.454
				c1.08,0,1.949,0.111,2.611,0.32c0.662,0.229,1.135,0.567,1.438,1.021c0.303,0.471,0.454,1.076,0.454,1.834
				c0,0.738-0.151,1.344-0.454,1.799c-0.304,0.453-0.795,0.771-1.438,0.98c-0.645,0.209-1.514,0.322-2.611,0.322H14.91
				c-1.08,0-1.932-0.094-2.594-0.303c-0.643-0.207-1.133-0.531-1.437-0.984c-0.303-0.455-0.454-1.078-0.454-1.854
				C10.443,43.913,10.596,43.269,10.898,42.815z M12.488,45.368c0.32,0.133,0.867,0.188,1.607,0.188h3.139
				c0.72,0,1.25-0.057,1.59-0.188s0.49-0.34,0.49-0.662c0-0.303-0.17-0.527-0.49-0.643c-0.34-0.133-0.871-0.188-1.59-0.188h-3.139
				c-0.74,0-1.287,0.057-1.607,0.188c-0.322,0.113-0.493,0.34-0.493,0.662C11.995,45.028,12.148,45.235,12.488,45.368z"/>
			<path fill="#FFFFFF" d="M14.891,77.729h-0.512c-0.643,0-1.134,0.021-1.456,0.059c-0.323,0.039-0.567,0.113-0.7,0.246
				c-0.15,0.113-0.228,0.303-0.228,0.566c0,0.34,0.134,0.568,0.399,0.701c0.263,0.133,0.698,0.188,1.321,0.207l-0.114,1.947
				c-0.095,0.02-0.205,0.02-0.356,0.02c-0.929,0-1.628-0.246-2.082-0.756c-0.453-0.512-0.681-1.229-0.681-2.156
				c0-1.115,0.357-1.891,1.059-2.346c0.702-0.455,1.777-0.682,3.255-0.682h1.759c1.514,0,2.61,0.227,3.311,0.699
				c0.699,0.475,1.039,1.268,1.039,2.385c0,0.773-0.15,1.381-0.434,1.797c-0.285,0.416-0.738,0.699-1.324,0.869
				c-0.605,0.17-1.439,0.246-2.498,0.246h-1.723v-3.803H14.891L14.891,77.729z M19.128,78.015c-0.151-0.111-0.379-0.188-0.701-0.227
				c-0.321-0.037-0.813-0.059-1.476-0.059h-0.719v1.666h0.719c0.645,0,1.135-0.02,1.476-0.057s0.568-0.133,0.701-0.246
				c0.132-0.113,0.208-0.303,0.208-0.529C19.354,78.3,19.279,78.13,19.128,78.015z"/>
			<path fill="#FFFFFF" d="M15.078,37.292l9.326-2.573v2.251l-4.219,0.907c-1.039,0.228-1.929,0.397-2.666,0.513v0.057
				c0.529,0.074,1.399,0.246,2.648,0.509l4.236,0.946v2.252l-9.326-2.61h-4.463v-2.231h4.463V37.292z"/>
			<path fill="#FFFFFF" d="M20.678,55.165H10.596v-1.777l1.23-0.188v-0.059c-0.928-0.473-1.399-1.209-1.399-2.174
				c0-0.662,0.226-1.154,0.66-1.477c0.437-0.322,1.116-0.471,2.063-0.471h7.526v2.268h-7.396c-0.454,0-0.776,0.057-0.965,0.15
				c-0.188,0.096-0.283,0.266-0.283,0.494c0,0.188,0.058,0.375,0.188,0.564c0.114,0.189,0.266,0.32,0.454,0.396h8.001v2.271H20.678z
				"/>
			<path fill="#FFFFFF" d="M20.678,66.8H10.596v-1.779l1.23-0.188v-0.059c-0.928-0.473-1.399-1.211-1.399-2.174
				c0-0.662,0.226-1.152,0.66-1.477c0.437-0.322,1.116-0.475,2.063-0.475h7.526v2.271h-7.396c-0.454,0-0.776,0.057-0.965,0.152
				c-0.188,0.094-0.283,0.264-0.283,0.49c0,0.189,0.058,0.377,0.188,0.568c0.114,0.188,0.266,0.32,0.454,0.395h8.001V66.8H20.678z"
				/>
			<path fill="#FFFFFF" d="M22.57,61.333v-2.252H10.615v-2.213H22.57v-2.25h1.834v6.715H22.57z"/>
			<path fill="#FFFFFF" d="M19.07,74.308c0.644-0.133,1.098-0.359,1.381-0.662c0.283-0.301,0.436-0.736,0.436-1.268
				c0-0.416-0.113-0.813-0.359-1.172c-0.228-0.359-0.549-0.645-0.926-0.832v-0.021h5.314v-2.191H10.615v1.871l0.945,0.229v0.057
				c-0.34,0.17-0.605,0.436-0.813,0.793c-0.188,0.361-0.304,0.738-0.304,1.174c0,0.775,0.359,1.324,1.06,1.686
				c0.7,0.357,1.815,0.547,3.312,0.547h1.588C17.557,74.497,18.445,74.438,19.07,74.308z M14.964,72.228
				c-0.735,0-1.305-0.039-1.719-0.094c-0.417-0.059-0.72-0.172-0.892-0.303c-0.168-0.152-0.263-0.342-0.263-0.568
				c0-0.188,0.037-0.359,0.132-0.512c0.094-0.15,0.226-0.283,0.396-0.377h5.711c0.266,0.076,0.494,0.207,0.682,0.396
				c0.172,0.188,0.266,0.396,0.266,0.605c0,0.227-0.094,0.414-0.266,0.527c-0.188,0.133-0.49,0.207-0.908,0.266
				c-0.436,0.057-1.041,0.076-1.815,0.076h-1.326v-0.018H14.964z"/>
		</g>
	</g>
</g>
</svg>
