<?xml version="1.0" encoding="utf-8"?>
<!-- Generator: Adobe Illustrator 13.0.0, SVG Export Plug-In . SVG Version: 6.00 Build 14948)  -->
<!DOCTYPE svg PUBLIC "-//W3C//DTD SVG 1.1//EN" "http://www.w3.org/Graphics/SVG/1.1/DTD/svg11.dtd">
<svg version="1.1"
	 id="Layer_1_copy" inkscape:version="0.48.4 r9939" sodipodi:docname="aspexi-small-org.svg" xmlns:dc="http://purl.org/dc/elements/1.1/" xmlns:cc="http://creativecommons.org/ns#" xmlns:rdf="http://www.w3.org/1999/02/22-rdf-syntax-ns#" xmlns:svg="http://www.w3.org/2000/svg" xmlns:sodipodi="http://sodipodi.sourceforge.net/DTD/sodipodi-0.dtd" xmlns:inkscape="http://www.inkscape.org/namespaces/inkscape"
	 xmlns="http://www.w3.org/2000/svg" xmlns:xlink="http://www.w3.org/1999/xlink" x="0px" y="0px" width="35px" height="35px"
	 viewBox="0 0 35 35" enable-background="new 0 0 35 35" xml:space="preserve">
<sodipodi:namedview  id="namedview3080" fit-margin-bottom="0" fit-margin-right="0" inkscape:current-layer="Layer_1" inkscape:window-y="27" inkscape:window-x="0" inkscape:window-height="834" inkscape:window-width="1600" inkscape:pageshadow="2" inkscape:pageopacity="0" fit-margin-left="0" fit-margin-top="0" pagecolor="#ffffff" inkscape:cy="125.4416" guidetolerance="10" inkscape:cx="-31.345431" gridtolerance="10" objecttolerance="10" inkscape:zoom="1.6823576" borderopacity="1" showgrid="false" bordercolor="#666666" inkscape:window-maximized="1" inkscape:snap-global="true">
	</sodipodi:namedview>
<path id="Blue_2_" inkscape:connector-curvature="0" fill="#FF0000" d="M1.991,0C0.892,0,0,0.892,0,1.991v31.018
	C0,34.107,0.892,35,1.991,35h31.018C34.107,35,35,34.108,35,33.009V1.991C35,0.892,34.107,0,33.009,0H1.991z M1.991,0.135h31.018
	c1.026,0,1.856,0.83,1.856,1.856v31.018c0,1.026-0.83,1.856-1.856,1.856H1.991c-1.026,0-1.856-0.83-1.856-1.856V1.991
	C0.135,0.965,0.965,0.135,1.991,0.135z"/>
<g>
	<path fill="#FF0000" d="M29.723,11.368c-0.295-1.092-1.156-1.953-2.248-2.247C25.48,8.574,17.5,8.574,17.5,8.574
		s-7.98,0-9.976,0.526c-1.071,0.293-1.953,1.176-2.247,2.268C4.752,13.363,4.752,17.5,4.752,17.5s0,4.158,0.525,6.133
		c0.294,1.093,1.155,1.953,2.247,2.247c2.017,0.546,9.976,0.546,9.976,0.546s7.981,0,9.975-0.525
		c1.092-0.294,1.953-1.154,2.248-2.246c0.524-1.996,0.524-6.133,0.524-6.133S30.269,13.363,29.723,11.368z"/>
	<polygon fill="#FFFFFF" points="14.958,21.323 21.594,17.5 14.958,13.678 	"/>
</g>
</svg>
