<?xml version="1.0" encoding="utf-8"?>
<!-- Generator: Adobe Illustrator 13.0.0, SVG Export Plug-In . SVG Version: 6.00 Build 14948)  -->
<!DOCTYPE svg PUBLIC "-//W3C//DTD SVG 1.1//EN" "http://www.w3.org/Graphics/SVG/1.1/DTD/svg11.dtd">
<svg version="1.1" xmlns="http://www.w3.org/2000/svg" xmlns:xlink="http://www.w3.org/1999/xlink" x="0px" y="0px" width="35px"
	 height="92px" viewBox="0 0 35 92" enable-background="new 0 0 35 92" xml:space="preserve">
<g id="facebook" inkscape:version="0.48.4 r9939" sodipodi:docname="aspexi-big-org-right.svg" xmlns:osb="http://www.openswatchbook.org/uri/2009/osb" xmlns:dc="http://purl.org/dc/elements/1.1/" xmlns:cc="http://creativecommons.org/ns#" xmlns:rdf="http://www.w3.org/1999/02/22-rdf-syntax-ns#" xmlns:svg="http://www.w3.org/2000/svg" xmlns:sodipodi="http://sodipodi.sourceforge.net/DTD/sodipodi-0.dtd" xmlns:inkscape="http://www.inkscape.org/namespaces/inkscape" display="none">
	
		<sodipodi:namedview  id="namedview14" fit-margin-bottom="0" fit-margin-right="0" inkscape:current-layer="svg2" inkscape:window-y="27" inkscape:window-x="0" inkscape:window-height="834" inkscape:window-width="1600" inkscape:pageshadow="2" inkscape:pageopacity="0" fit-margin-left="0" fit-margin-top="0" pagecolor="#ffffff" inkscape:cy="133.5" guidetolerance="10" inkscape:cx="-211.66833" gridtolerance="10" objecttolerance="10" inkscape:zoom="1.1390977" borderopacity="1" showgrid="false" bordercolor="#666666" inkscape:window-maximized="1">
		</sodipodi:namedview>
	
		<g id="g4" transform="matrix(0,-0.34456929,0.34653465,0,0.17326733,91.827716)" inkscape:export-ydpi="31.127819" inkscape:export-xdpi="31.127819" display="inline">
		<path id="rect6" inkscape:connector-curvature="0" fill="#3B5998" d="M-0.5-0.5V0v99.998v0.502h0.499H266h0.5v-0.502V0v-0.5H266
			H-0.001H-0.5z M0.5,0.5H265.5v98.999H0.5V0.5z"/>
	</g>
	<g id="g8" transform="matrix(0,-0.34456929,0.34653465,0,1.4242093,93.215586)" display="inline">
		<path id="path10" inkscape:connector-curvature="0" fill="#3B5998" d="M140.021,49.597c-1.784,0-3.071,0.586-4.375,1.181v13.485
			c1.25,0.118,1.965,0.118,3.15,0.118c4.282,0,4.869-1.959,4.869-4.698v-6.439C143.666,51.22,142.995,49.597,140.021,49.597z
			 M111.583,48.859c-2.97,0-3.65,1.634-3.65,3.652v1.136h7.295v-1.136C115.228,50.493,114.55,48.859,111.583,48.859z M56.493,62.898
			c0,1.598,0.754,2.429,2.418,2.429c1.786,0,2.843-0.583,4.146-1.181v-3.199h-3.905C57.303,60.948,56.493,61.292,56.493,62.898z
			 M167.684,49.597c-2.976,0-4.006,1.623-4.006,3.647v7.378c0,2.029,1.03,3.658,4.006,3.658c2.967,0,4.008-1.629,4.008-3.658v-7.378
			C171.691,51.22,170.651,49.597,167.684,49.597z M41.908,71.172h-8.746V49.997h-4.37v-7.296h4.37v-4.381
			c0-5.953,2.466-9.493,9.477-9.493h5.838v7.299H44.83c-2.729,0-2.911,1.019-2.911,2.922l-0.011,3.652h6.612l-0.774,7.296h-5.838
			V71.172z M71.806,71.226h-7.289l-0.315-1.843c-3.33,1.843-6.303,2.145-8.262,2.145c-5.348,0-8.194-3.573-8.194-8.513
			c0-5.828,3.322-7.91,9.262-7.91h6.048v-1.257c0-2.976-0.34-3.849-4.917-3.849H50.66l0.731-7.296h8.177
			c10.039,0,12.238,3.17,12.238,11.202V71.226z M96.599,50.533c-4.537-0.778-5.841-0.947-8.023-0.947
			c-3.92,0-5.107,0.862-5.107,4.193v6.298c0,3.331,1.188,4.202,5.107,4.202c2.182,0,3.486-0.175,8.023-0.958v7.118
			c-3.973,0.891-6.561,1.124-8.749,1.124c-9.392,0-13.128-4.94-13.128-12.075v-5.109c0-7.141,3.735-12.09,13.128-12.09
			c2.188,0,4.776,0.235,8.749,1.13V50.533z M123.974,59.489h-16.041v0.589c0,3.331,1.185,4.202,5.107,4.202
			c3.526,0,5.674-0.175,10.203-0.958v7.118c-4.365,0.891-6.643,1.124-10.929,1.124c-9.392,0-13.128-4.94-13.128-12.075v-5.842
			c0-6.243,2.772-11.357,12.397-11.357s12.391,5.054,12.391,11.357V59.489z M152.412,59.624c0,6.899-1.97,11.926-13.91,11.926
			c-4.314,0-6.842-0.378-11.6-1.11V31.019l8.745-1.46v13.789c1.89-0.702,4.336-1.058,6.562-1.058
			c8.746,0,10.203,3.921,10.203,10.221V59.624z M180.446,59.776c0,5.949-2.456,11.718-12.732,11.718
			c-10.281,0-12.783-5.769-12.783-11.718v-5.743c0-5.952,2.503-11.725,12.783-11.725c10.277,0,12.732,5.773,12.732,11.725V59.776z
			 M208.459,59.776c0,5.949-2.459,11.718-12.732,11.718c-10.282,0-12.783-5.769-12.783-11.718v-5.743
			c0-5.952,2.501-11.725,12.783-11.725c10.274,0,12.732,5.773,12.732,11.725V59.776z M237.208,71.172h-9.479l-8.018-13.383v13.383
			h-8.748V31.019l8.748-1.46v25.849l8.018-12.707h9.479l-8.752,13.868L237.208,71.172z M195.696,49.597
			c-2.97,0-4.002,1.623-4.002,3.647v7.378c0,2.029,1.032,3.658,4.002,3.658c2.967,0,4.017-1.629,4.017-3.658v-7.378
			C199.714,51.22,198.664,49.597,195.696,49.597z"/>
		<path id="path12" inkscape:connector-curvature="0" fill="#3B5998" d="M242.201,66.179c1.474,0,2.647,1.201,2.647,2.7
			c0,1.525-1.173,2.711-2.657,2.711c-1.475,0-2.673-1.186-2.673-2.711c0-1.499,1.197-2.7,2.673-2.7H242.201z M242.191,66.596
			c-1.186,0-2.158,1.023-2.158,2.283c0,1.285,0.972,2.291,2.168,2.291c1.199,0.014,2.157-1.006,2.157-2.28
			c0-1.271-0.958-2.294-2.157-2.294H242.191z M241.686,70.451h-0.48v-3.015c0.252-0.034,0.493-0.068,0.852-0.068
			c0.456,0,0.754,0.096,0.937,0.225c0.177,0.135,0.272,0.338,0.272,0.623c0,0.397-0.261,0.637-0.584,0.736v0.023
			c0.262,0.051,0.442,0.287,0.502,0.733c0.071,0.468,0.143,0.648,0.191,0.744h-0.503c-0.071-0.096-0.143-0.372-0.204-0.769
			c-0.071-0.383-0.264-0.527-0.649-0.527h-0.333V70.451z M241.686,68.783h0.349c0.393,0,0.728-0.144,0.728-0.519
			c0-0.262-0.191-0.524-0.728-0.524c-0.157,0-0.266,0.011-0.349,0.023V68.783z"/>
	</g>
</g>
<g id="twitter" inkscape:version="0.48.4 r9939" sodipodi:docname="aspexi-big-org-right.svg" xmlns:osb="http://www.openswatchbook.org/uri/2009/osb" xmlns:dc="http://purl.org/dc/elements/1.1/" xmlns:cc="http://creativecommons.org/ns#" xmlns:rdf="http://www.w3.org/1999/02/22-rdf-syntax-ns#" xmlns:svg="http://www.w3.org/2000/svg" xmlns:sodipodi="http://sodipodi.sourceforge.net/DTD/sodipodi-0.dtd" xmlns:inkscape="http://www.inkscape.org/namespaces/inkscape" display="none">
	
		<sodipodi:namedview  id="namedview14" fit-margin-bottom="0" fit-margin-right="0" inkscape:current-layer="svg2" inkscape:window-y="27" inkscape:window-x="0" inkscape:window-height="834" inkscape:window-width="1600" inkscape:pageshadow="2" inkscape:pageopacity="0" fit-margin-left="0" fit-margin-top="0" pagecolor="#ffffff" inkscape:cy="133.5" guidetolerance="10" inkscape:cx="-211.66833" gridtolerance="10" objecttolerance="10" inkscape:zoom="1.1390977" borderopacity="1" showgrid="false" bordercolor="#666666" inkscape:window-maximized="1">
		</sodipodi:namedview>
	
		<g id="g4_1_" transform="matrix(0,-0.34456929,0.34653465,0,0.17326733,91.827716)" inkscape:export-ydpi="31.127819" inkscape:export-xdpi="31.127819" display="inline">
		<path id="rect6_1_" inkscape:connector-curvature="0" fill="#1DA1F2" d="M0.951-0.5V0v99.998v0.502H1.45h266.001h0.5v-0.502V0
			v-0.5h-0.5H1.45H0.951z M1.952,0.5h264.999v98.999H1.952V0.5z"/>
	</g>
	<g display="inline">
		<path fill="#1DA1F2" d="M11.78,29.576c-0.448-0.516-0.786-1.079-0.983-1.719c-0.903-2.938,1.283-5.966,4.358-6.016
			c1.145-0.018,2.292-0.011,3.438,0c1.094,0.012,1.799,0.907,1.555,1.957c-0.154,0.66-0.769,1.149-1.464,1.158
			c-1.137,0.012-2.274,0.016-3.411,0.029c-0.887,0.009-1.562,0.751-1.496,1.638c0.056,0.744,0.727,1.373,1.509,1.383
			c1.095,0.013,2.19,0.002,3.284,0.011c1.216,0.012,1.988,1.192,1.475,2.26c-0.291,0.604-0.812,0.876-1.462,0.885
			c-1.07,0.014-2.14-0.002-3.21,0.007c-0.98,0.007-1.677,0.749-1.594,1.681c0.071,0.792,0.755,1.357,1.661,1.364
			c1.026,0.005,2.055-0.002,3.082,0.002c0.681,0.003,1.229,0.265,1.529,0.9c0.472,1-0.193,2.16-1.304,2.206
			c-1.213,0.052-2.428,0.021-3.641,0.011c-0.271-0.002-0.543-0.038-0.808-0.093c-1.937-0.396-3.401-1.975-3.683-3.94
			c-0.188-1.316,0.201-2.459,0.991-3.493C11.662,29.734,11.717,29.66,11.78,29.576z"/>
		<path fill="#1DA1F2" d="M19.951,14.677c0,0.138,0,0.239,0,0.339c0,1.435,0.001,2.871,0,4.306c0,0.877-0.624,1.554-1.476,1.602
			c-0.864,0.05-1.565-0.568-1.647-1.455c-0.021-0.235-0.017-0.473-0.017-0.712c-0.002-1.256-0.001-2.512-0.001-3.767
			c0-0.1,0-0.199,0-0.371c-0.62,0.065-1.218,0.074-1.789,0.201c-0.604,0.131-1.012,0.746-1.025,1.454
			c-0.021,1.111-0.009,2.224-0.013,3.337c-0.003,0.873-0.602,1.545-1.478,1.663c-0.848,0.115-1.639-0.416-1.85-1.247
			c-0.033-0.129-0.055-0.267-0.054-0.402c0.01-1.263-0.012-2.529,0.05-3.791c0.083-1.697,0.987-2.921,2.387-3.803
			c0.745-0.469,1.57-0.695,2.462-0.69c2.335,0.012,4.669,0.002,7.003,0.002c0.784,0,1.499,0.663,1.566,1.453
			c0.095,1.076-0.635,1.877-1.718,1.88c-0.694,0.002-1.39,0.002-2.086,0.002C20.175,14.677,20.084,14.677,19.951,14.677z"/>
		<path fill="#1DA1F2" d="M14.484,63.647c-0.403-0.021-0.633,0.165-0.8,0.475c-0.301,0.56-0.332,1.167-0.338,1.779
			c-0.007,0.898-0.007,1.798-0.02,2.697c-0.007,0.58-0.368,1.089-0.889,1.275c-0.522,0.188-1.135,0.041-1.493-0.363
			c-0.243-0.272-0.348-0.603-0.348-0.959c0-1.272-0.03-2.546,0.023-3.817c0.104-2.468,2.186-4.477,4.654-4.546
			c0.902-0.026,1.78,0.091,2.585,0.527c1.1,0.596,1.836,1.495,2.133,2.716c0.321,1.319,0.327,2.648-0.158,3.929
			c-0.608,1.609-1.737,2.649-3.484,2.903c-0.336,0.05-0.696,0.016-1.033-0.052c-0.486-0.095-0.784-0.525-0.823-1.096
			c-0.011-0.151-0.011-0.306-0.011-0.458c-0.001-1.578,0-3.154,0-4.732C14.484,63.835,14.484,63.745,14.484,63.647z M16.687,66.927
			c0.324,0.019,0.556-0.129,0.702-0.383c0.467-0.814,0.47-1.64,0.004-2.458c-0.15-0.265-0.388-0.401-0.706-0.403
			C16.687,64.772,16.687,65.847,16.687,66.927z"/>
		<path fill="#1DA1F2" d="M19.951,46.346c0,0.352,0,0.673,0,0.994c0,0.61,0.002,1.221,0,1.832c-0.002,0.923-0.653,1.6-1.544,1.607
			c-0.907,0.007-1.586-0.663-1.595-1.591c-0.009-0.882-0.002-1.766-0.003-2.647c0-0.041-0.004-0.082-0.009-0.154
			c-0.572-0.019-1.138-0.102-1.694,0.047c-0.631,0.169-1.081,0.764-1.111,1.486c-0.023,0.541-0.004,1.086-0.013,1.629
			c-0.015,0.776-0.637,1.477-1.398,1.583c-0.859,0.119-1.657-0.324-1.876-1.087c-0.089-0.305-0.1-0.635-0.118-0.955
			c-0.061-1.047-0.04-2.095,0.404-3.071c0.8-1.753,2.172-2.747,4.085-2.983c0.253-0.031,0.507-0.039,0.762-0.039
			c2.181-0.004,4.361-0.007,6.542,0.001c0.657,0.002,1.193,0.27,1.504,0.87c0.302,0.585,0.28,1.18-0.09,1.736
			c-0.314,0.472-0.773,0.708-1.333,0.723c-0.721,0.021-1.442,0.014-2.164,0.02C20.199,46.346,20.099,46.346,19.951,46.346z"/>
		<path fill="#1DA1F2" d="M16.811,55.065c-0.49,0-0.94-0.031-1.386,0.009c-0.807,0.069-1.392,0.713-1.429,1.555
			c-0.025,0.534-0.005,1.07-0.014,1.604c-0.014,0.838-0.704,1.574-1.503,1.613c-0.993,0.048-1.747-0.493-1.841-1.365
			c-0.057-0.514-0.066-1.032-0.064-1.549c0.004-1.293,0.328-2.485,1.207-3.474c1.031-1.16,2.321-1.759,3.882-1.757
			c2.24,0.002,4.48-0.004,6.72,0.003c0.661,0,1.193,0.268,1.504,0.868c0.297,0.576,0.273,1.166-0.078,1.718
			c-0.346,0.541-0.871,0.757-1.494,0.762c-0.696,0.004-1.393,0.011-2.088-0.005c-0.231-0.005-0.283,0.07-0.279,0.289
			c0.012,0.857,0.006,1.714,0.004,2.571c-0.001,0.876-0.642,1.55-1.495,1.58c-0.874,0.03-1.577-0.567-1.618-1.444
			c-0.042-0.879-0.021-1.762-0.027-2.644C16.81,55.3,16.811,55.2,16.811,55.065z"/>
		<path fill="#1DA1F2" d="M13.738,74.313c-0.519,0-1.036,0.013-1.554-0.003c-1.26-0.039-1.996-1.303-1.366-2.35
			c0.291-0.484,0.733-0.745,1.306-0.753c0.5-0.007,1-0.013,1.501,0.001c0.843,0.021,1.694-0.005,2.528,0.102
			c1.868,0.237,3.477,1.826,3.728,3.693c0.109,0.81,0.063,1.641,0.082,2.462c0.006,0.202-0.01,0.406-0.011,0.609
			c-0.005,0.891-0.676,1.58-1.544,1.586c-0.893,0.007-1.581-0.659-1.596-1.563c-0.012-0.711,0.002-1.424-0.003-2.136
			c-0.007-0.843-0.411-1.438-1.119-1.582c-0.336-0.068-0.69-0.054-1.036-0.063C14.349,74.307,14.043,74.314,13.738,74.313z"/>
		<path fill="#1DA1F2" d="M15.398,38.502c1.018,0,2.036,0,3.056,0c0.952,0,1.721,0.701,1.744,1.593
			c0.025,0.981-0.677,1.743-1.686,1.752c-2.079,0.02-4.158,0.017-6.237,0.001c-0.931-0.008-1.604-0.67-1.676-1.583
			c-0.064-0.819,0.525-1.596,1.365-1.729c0.373-0.062,0.761-0.032,1.142-0.032C13.87,38.5,14.635,38.502,15.398,38.502z"/>
		<path fill="#1DA1F2" d="M24.435,40.169c-0.003,0.941-0.743,1.685-1.677,1.684c-0.959,0-1.698-0.751-1.693-1.722
			c0.004-0.919,0.747-1.631,1.696-1.627C23.73,38.507,24.438,39.21,24.435,40.169z"/>
	</g>
</g>
<g id="youtube" inkscape:version="0.48.4 r9939" sodipodi:docname="aspexi-big-org-right.svg" xmlns:osb="http://www.openswatchbook.org/uri/2009/osb" xmlns:dc="http://purl.org/dc/elements/1.1/" xmlns:cc="http://creativecommons.org/ns#" xmlns:rdf="http://www.w3.org/1999/02/22-rdf-syntax-ns#" xmlns:svg="http://www.w3.org/2000/svg" xmlns:sodipodi="http://sodipodi.sourceforge.net/DTD/sodipodi-0.dtd" xmlns:inkscape="http://www.inkscape.org/namespaces/inkscape">
	
		<sodipodi:namedview  id="namedview14" fit-margin-bottom="0" fit-margin-right="0" inkscape:current-layer="svg2" inkscape:window-y="27" inkscape:window-x="0" inkscape:window-height="834" inkscape:window-width="1600" inkscape:pageshadow="2" inkscape:pageopacity="0" fit-margin-left="0" fit-margin-top="0" pagecolor="#ffffff" inkscape:cy="133.5" guidetolerance="10" inkscape:cx="-211.66833" gridtolerance="10" objecttolerance="10" inkscape:zoom="1.1390977" borderopacity="1" showgrid="false" bordercolor="#666666" inkscape:window-maximized="1">
		</sodipodi:namedview>
	
		<g id="g4_2_" transform="matrix(0,-0.34456929,0.34653465,0,0.17326733,91.827716)" inkscape:export-ydpi="31.127819" inkscape:export-xdpi="31.127819">
		<path id="rect6_2_" inkscape:connector-curvature="0" fill="#282828" d="M0.951-0.5V0v99.998v0.502H1.45h266.001h0.5v-0.502V0
			v-0.5h-0.5H1.45H0.951z M1.952,0.5h264.999v98.999H1.952V0.5z"/>
	</g>
	<g>
		<g>
			<path fill="#FF0000" d="M22.523,31.959c0.984-0.266,1.76-1.042,2.024-2.024c0.491-1.797,0.491-8.986,0.491-8.986
				s0-7.188-0.472-8.983c-0.266-0.965-1.06-1.759-2.044-2.024C20.727,9.469,17,9.469,17,9.469s-3.747,0-5.523,0.472
				c-0.985,0.266-1.759,1.039-2.024,2.024c-0.491,1.816-0.491,8.983-0.491,8.983s0,7.189,0.471,8.986
				c0.266,0.982,1.042,1.759,2.024,2.024c1.797,0.471,5.524,0.471,5.524,0.471S20.727,32.451,22.523,31.959z"/>
			<polygon fill="#FFFFFF" points="13.557,18.662 17,24.638 20.443,18.662 			"/>
		</g>
		<g>
			<g>
				<path fill="#282828" d="M10.398,42.816c0.303-0.454,0.776-0.776,1.438-0.965c0.643-0.188,1.514-0.283,2.573-0.283h1.455
					c1.079,0,1.948,0.111,2.611,0.32c0.662,0.229,1.135,0.568,1.438,1.022c0.303,0.471,0.454,1.076,0.454,1.833
					c0,0.739-0.151,1.345-0.454,1.799c-0.303,0.453-0.795,0.773-1.438,0.982c-0.645,0.208-1.514,0.322-2.611,0.322H14.41
					c-1.08,0-1.931-0.095-2.593-0.303c-0.643-0.208-1.134-0.531-1.437-0.985s-0.454-1.077-0.454-1.853
					C9.944,43.913,10.096,43.27,10.398,42.816z M11.988,45.369c0.32,0.132,0.868,0.188,1.607,0.188h3.139
					c0.72,0,1.25-0.057,1.59-0.188c0.34-0.131,0.491-0.34,0.491-0.662c0-0.303-0.17-0.528-0.491-0.643
					c-0.34-0.132-0.871-0.188-1.59-0.188h-3.139c-0.739,0-1.287,0.057-1.607,0.188c-0.322,0.114-0.493,0.34-0.493,0.662
					C11.495,45.029,11.648,45.237,11.988,45.369z"/>
				<path fill="#282828" d="M14.39,77.731h-0.511c-0.643,0-1.134,0.02-1.456,0.058c-0.323,0.038-0.568,0.114-0.7,0.245
					c-0.151,0.114-0.228,0.303-0.228,0.568c0,0.34,0.134,0.567,0.399,0.7c0.263,0.133,0.699,0.188,1.322,0.208l-0.114,1.947
					c-0.095,0.019-0.206,0.019-0.357,0.019c-0.928,0-1.628-0.245-2.082-0.755c-0.453-0.512-0.68-1.23-0.68-2.157
					c0-1.115,0.357-1.891,1.058-2.346c0.702-0.454,1.778-0.682,3.255-0.682h1.758c1.514,0,2.611,0.228,3.311,0.7
					c0.7,0.474,1.04,1.268,1.04,2.384c0,0.775-0.151,1.381-0.435,1.797c-0.284,0.416-0.738,0.7-1.324,0.87
					c-0.605,0.17-1.439,0.246-2.498,0.246h-1.722v-3.803H14.39z M18.628,78.016c-0.151-0.112-0.379-0.188-0.701-0.227
					c-0.322-0.038-0.813-0.058-1.476-0.058h-0.719v1.665h0.719c0.644,0,1.135-0.019,1.476-0.057c0.34-0.037,0.568-0.132,0.701-0.246
					c0.132-0.112,0.208-0.303,0.208-0.529C18.854,78.3,18.779,78.13,18.628,78.016z"/>
				<path fill="#282828" d="M14.578,37.293l9.326-2.573v2.251l-4.218,0.907c-1.04,0.227-1.929,0.397-2.667,0.512v0.057
					c0.53,0.074,1.4,0.246,2.649,0.509l4.236,0.947v2.251l-9.326-2.61h-4.463v-2.232h4.463V37.293z"/>
				<path fill="#282828" d="M20.178,55.166H10.096v-1.777l1.23-0.189v-0.058c-0.928-0.473-1.399-1.208-1.399-2.173
					c0-0.662,0.226-1.154,0.66-1.477c0.437-0.322,1.116-0.471,2.063-0.471h7.527v2.268h-7.396c-0.454,0-0.776,0.057-0.965,0.151
					c-0.188,0.094-0.283,0.265-0.283,0.493c0,0.188,0.058,0.376,0.188,0.565c0.114,0.19,0.266,0.321,0.454,0.397h8.001V55.166z"/>
				<path fill="#282828" d="M20.178,66.8H10.096v-1.779l1.23-0.188v-0.057c-0.928-0.473-1.399-1.211-1.399-2.175
					c0-0.662,0.226-1.153,0.66-1.477c0.437-0.321,1.116-0.473,2.063-0.473h7.527v2.271h-7.396c-0.454,0-0.776,0.056-0.965,0.151
					c-0.188,0.094-0.283,0.264-0.283,0.491c0,0.189,0.058,0.378,0.188,0.568c0.114,0.188,0.266,0.321,0.454,0.396h8.001V66.8z"/>
				<path fill="#282828" d="M22.07,61.333v-2.252H10.115v-2.213H22.07v-2.25h1.834v6.715H22.07z"/>
				<path fill="#282828" d="M18.57,74.309c0.644-0.133,1.098-0.36,1.381-0.663c0.284-0.301,0.436-0.736,0.436-1.267
					c0-0.416-0.114-0.813-0.36-1.173c-0.227-0.358-0.548-0.643-0.926-0.831v-0.021h5.315v-2.193H10.115v1.872l0.945,0.228v0.057
					c-0.34,0.17-0.605,0.435-0.813,0.794c-0.188,0.36-0.303,0.738-0.303,1.173c0,0.776,0.359,1.324,1.059,1.685
					c0.7,0.358,1.816,0.548,3.311,0.548h1.589C17.056,74.498,17.946,74.44,18.57,74.309z M14.464,72.228
					c-0.736,0-1.305-0.038-1.719-0.094c-0.417-0.058-0.72-0.171-0.891-0.303c-0.169-0.151-0.263-0.341-0.263-0.568
					c0-0.188,0.037-0.359,0.131-0.511c0.095-0.15,0.226-0.283,0.397-0.377h5.711c0.266,0.075,0.494,0.207,0.682,0.396
					c0.171,0.188,0.266,0.397,0.266,0.605c0,0.227-0.095,0.415-0.266,0.529c-0.188,0.132-0.491,0.207-0.909,0.265
					c-0.435,0.057-1.04,0.075-1.815,0.075h-1.326V72.228z"/>
			</g>
		</g>
	</g>
</g>
</svg>
