<?xml version="1.0" encoding="utf-8"?>
<!-- Generator: Adobe Illustrator 13.0.0, SVG Export Plug-In . SVG Version: 6.00 Build 14948)  -->
<!DOCTYPE svg PUBLIC "-//W3C//DTD SVG 1.1//EN" "http://www.w3.org/Graphics/SVG/1.1/DTD/svg11.dtd">
<svg version="1.1"
	 id="svg2" inkscape:version="0.48.4 r9939" sodipodi:docname="aspexi-big-org-fill-left.svg" xmlns:dc="http://purl.org/dc/elements/1.1/" xmlns:cc="http://creativecommons.org/ns#" xmlns:rdf="http://www.w3.org/1999/02/22-rdf-syntax-ns#" xmlns:svg="http://www.w3.org/2000/svg" xmlns:sodipodi="http://sodipodi.sourceforge.net/DTD/sodipodi-0.dtd" xmlns:inkscape="http://www.inkscape.org/namespaces/inkscape"
	 xmlns="http://www.w3.org/2000/svg" xmlns:xlink="http://www.w3.org/1999/xlink" x="0px" y="0px" width="35px" height="92px"
	 viewBox="0 0 35 92" enable-background="new 0 0 35 92" xml:space="preserve">
<sodipodi:namedview  id="namedview14" fit-margin-bottom="0" fit-margin-right="0" inkscape:current-layer="svg2" inkscape:window-y="27" inkscape:window-x="0" inkscape:window-height="834" inkscape:window-width="1600" inkscape:pageshadow="2" inkscape:pageopacity="0" pagecolor="#ffffff" bordercolor="#666666" inkscape:cy="131.24422" guidetolerance="10" inkscape:cx="53.511552" fit-margin-left="0" gridtolerance="10" borderopacity="1" objecttolerance="10" fit-margin-top="0" inkscape:zoom="1.1390977" showgrid="false" inkscape:window-maximized="1">
	</sodipodi:namedview>
<g id="g4" transform="matrix(0,0.34586466,-0.35,0,35,0)">
	
		<rect id="rect6" x="82.402" y="-81.429" transform="matrix(2.578893e-006 1 -1 2.578893e-006 182.9995 -83)" fill="#FF0000" width="101.196" height="262.857"/>
</g>
<sodipodi:namedview  id="namedview14" fit-margin-bottom="0" fit-margin-right="0" inkscape:current-layer="svg2" inkscape:window-y="27" inkscape:window-x="0" inkscape:window-height="834" inkscape:window-width="1600" inkscape:pageshadow="2" inkscape:pageopacity="0" pagecolor="#ffffff" bordercolor="#666666" inkscape:cy="133.5" guidetolerance="10" inkscape:cx="-211.66833" fit-margin-left="0" gridtolerance="10" borderopacity="1" objecttolerance="10" fit-margin-top="0" inkscape:zoom="1.1390977" showgrid="false" inkscape:window-maximized="1">
	</sodipodi:namedview>
<g>
	<path fill="#FFFFFF" d="M11.977,59.042c-0.983,0.266-1.76,1.042-2.023,2.023c-0.491,1.797-0.491,8.986-0.491,8.986
		s0,7.188,0.472,8.983c0.267,0.965,1.061,1.759,2.045,2.023c1.795,0.474,5.521,0.474,5.521,0.474s3.747,0,5.523-0.473
		c0.984-0.266,1.759-1.039,2.023-2.023c0.491-1.816,0.491-8.983,0.491-8.983s0-7.189-0.472-8.986
		c-0.266-0.981-1.041-1.759-2.023-2.023c-1.797-0.472-5.523-0.472-5.523-0.472S13.773,58.55,11.977,59.042z"/>
	<polygon fill="#FF0000" points="20.943,72.339 17.5,66.362 14.057,72.339 	"/>
	<g>
		<g>
			<path fill="#FFFFFF" d="M24.102,48.185c-0.303,0.455-0.775,0.776-1.438,0.965c-0.643,0.188-1.514,0.283-2.573,0.283h-1.454
				c-1.08,0-1.949-0.111-2.611-0.32c-0.662-0.229-1.135-0.567-1.438-1.021c-0.303-0.471-0.454-1.076-0.454-1.834
				c0-0.738,0.151-1.344,0.454-1.799c0.304-0.453,0.795-0.771,1.438-0.98c0.645-0.209,1.514-0.322,2.611-0.322h1.453
				c1.08,0,1.932,0.094,2.594,0.303c0.643,0.207,1.133,0.531,1.437,0.984c0.303,0.455,0.454,1.078,0.454,1.854
				C24.557,47.087,24.404,47.731,24.102,48.185z M22.512,45.632c-0.32-0.133-0.867-0.188-1.607-0.188h-3.139
				c-0.72,0-1.25,0.057-1.59,0.188s-0.49,0.34-0.49,0.662c0,0.303,0.17,0.527,0.49,0.643c0.34,0.133,0.871,0.188,1.59,0.188h3.139
				c0.74,0,1.287-0.057,1.607-0.188c0.322-0.113,0.493-0.34,0.493-0.662C23.005,45.972,22.852,45.765,22.512,45.632z"/>
			<path fill="#FFFFFF" d="M20.109,13.271h0.512c0.643,0,1.134-0.021,1.456-0.059c0.323-0.039,0.567-0.113,0.7-0.246
				c0.15-0.113,0.228-0.303,0.228-0.566c0-0.34-0.134-0.568-0.399-0.701c-0.263-0.133-0.698-0.188-1.321-0.207l0.114-1.947
				c0.095-0.02,0.205-0.02,0.356-0.02c0.929,0,1.628,0.246,2.082,0.756c0.453,0.512,0.681,1.229,0.681,2.156
				c0,1.115-0.357,1.891-1.059,2.346c-0.702,0.455-1.777,0.682-3.255,0.682h-1.759c-1.514,0-2.61-0.227-3.311-0.699
				c-0.699-0.475-1.039-1.268-1.039-2.385c0-0.773,0.15-1.381,0.434-1.797c0.285-0.416,0.738-0.699,1.324-0.869
				c0.605-0.17,1.439-0.246,2.498-0.246h1.723v3.803H20.109L20.109,13.271z M15.872,12.985c0.151,0.111,0.379,0.188,0.701,0.227
				c0.321,0.037,0.813,0.059,1.476,0.059h0.719v-1.666h-0.719c-0.645,0-1.135,0.02-1.476,0.057s-0.568,0.133-0.701,0.246
				c-0.132,0.113-0.208,0.303-0.208,0.529C15.646,12.7,15.721,12.87,15.872,12.985z"/>
			<path fill="#FFFFFF" d="M19.922,53.708l-9.326,2.573V54.03l4.219-0.907c1.039-0.228,1.929-0.397,2.666-0.513v-0.057
				c-0.529-0.074-1.399-0.246-2.648-0.509l-4.236-0.946v-2.252l9.326,2.61h4.463v2.231h-4.463V53.708z"/>
			<path fill="#FFFFFF" d="M14.322,35.835h10.082v1.777l-1.23,0.188v0.059c0.928,0.473,1.399,1.209,1.399,2.174
				c0,0.662-0.226,1.154-0.66,1.477c-0.437,0.322-1.116,0.471-2.063,0.471h-7.526v-2.268h7.396c0.454,0,0.776-0.057,0.965-0.15
				c0.188-0.096,0.283-0.266,0.283-0.494c0-0.188-0.058-0.375-0.188-0.564c-0.114-0.189-0.266-0.32-0.454-0.396h-8.001v-2.271
				H14.322z"/>
			<path fill="#FFFFFF" d="M14.322,24.2h10.082v1.779l-1.23,0.188v0.059c0.928,0.473,1.399,1.211,1.399,2.174
				c0,0.662-0.226,1.152-0.66,1.477c-0.437,0.322-1.116,0.475-2.063,0.475h-7.526v-2.271h7.396c0.454,0,0.776-0.057,0.965-0.152
				c0.188-0.094,0.283-0.264,0.283-0.49c0-0.189-0.058-0.377-0.188-0.568c-0.114-0.188-0.266-0.32-0.454-0.395h-8.001V24.2H14.322z"
				/>
			<path fill="#FFFFFF" d="M12.43,29.667v2.252h11.955v2.213H12.43v2.25h-1.834v-6.715H12.43z"/>
			<path fill="#FFFFFF" d="M15.93,16.692c-0.644,0.133-1.098,0.359-1.381,0.662c-0.283,0.301-0.436,0.736-0.436,1.268
				c0,0.416,0.113,0.813,0.359,1.172c0.228,0.359,0.549,0.645,0.926,0.832v0.021h-5.314v2.191h14.301v-1.871l-0.945-0.229v-0.057
				c0.34-0.17,0.605-0.436,0.813-0.793c0.188-0.361,0.304-0.738,0.304-1.174c0-0.775-0.359-1.324-1.06-1.686
				c-0.7-0.357-1.815-0.547-3.312-0.547h-1.588C17.443,16.503,16.555,16.562,15.93,16.692z M20.036,18.772
				c0.735,0,1.305,0.039,1.719,0.094c0.417,0.059,0.72,0.172,0.892,0.303c0.168,0.152,0.263,0.342,0.263,0.568
				c0,0.188-0.037,0.359-0.132,0.512c-0.094,0.15-0.226,0.283-0.396,0.377H16.67c-0.266-0.076-0.494-0.207-0.682-0.396
				c-0.172-0.188-0.266-0.396-0.266-0.605c0-0.227,0.094-0.414,0.266-0.527c0.188-0.133,0.49-0.207,0.908-0.266
				c0.436-0.057,1.041-0.076,1.815-0.076h1.326v0.018H20.036z"/>
		</g>
	</g>
</g>
</svg>
